<?xml version="1.0" standalone="no"?>
<!DOCTYPE svg PUBLIC "-//W3C//DTD SVG 20010904//EN"
 "http://www.w3.org/TR/2001/REC-SVG-20010904/DTD/svg10.dtd">
<svg version="1.0" xmlns="http://www.w3.org/2000/svg"
 width="70.000000pt" height="70.000000pt" viewBox="0 0 70.000000 70.000000"
 preserveAspectRatio="xMidYMid meet">
<metadata>
Created by potrace 1.14, written by Peter Selinger 2001-2017
</metadata>
<g transform="translate(0.000000,70.000000) scale(0.100000,-0.100000)"
fill="#000000" stroke="none">
<path d="M294 563 c-27 -47 -61 -107 -76 -132 -14 -25 -60 -104 -101 -176 -41
-72 -74 -132 -71 -134 5 -5 593 -5 598 0 2 2 -36 73 -85 158 -49 85 -89 155
-89 157 0 1 -28 50 -63 108 l-64 106 -49 -87z m109 -233 c31 -52 55 -96 53
-97 -4 -4 -217 -5 -220 -2 -2 2 13 33 34 69 22 36 46 80 56 98 9 18 18 31 19
30 2 -2 28 -46 58 -98z"/>
</g>
</svg>
